<svg width="105" height="25" viewBox="0 0 105 25" fill="none" xmlns="http://www.w3.org/2000/svg">
<path d="M6.968 20C5.608 20 4.408 19.752 3.368 19.256C2.344 18.744 1.536 18.032 0.944 17.12C0.368 16.192 0.08 15.112 0.08 13.88C0.08 12.664 0.328 11.576 0.824 10.616C1.32 9.64 2.008 8.872 2.888 8.312C3.768 7.752 4.792 7.472 5.96 7.472C7.224 7.472 8.272 7.744 9.104 8.288C9.952 8.832 10.584 9.568 11 10.496C11.416 11.408 11.624 12.432 11.624 13.568C11.624 13.952 11.6 14.304 11.552 14.624H2.432C2.512 15.376 2.76 16.016 3.176 16.544C3.592 17.056 4.12 17.448 4.76 17.72C5.416 17.976 6.136 18.104 6.92 18.104H10.112V20H6.968ZM2.408 13.064H9.392C9.392 12.536 9.288 11.984 9.08 11.408C8.872 10.832 8.52 10.344 8.024 9.944C7.528 9.528 6.84 9.32 5.96 9.32C5.224 9.32 4.592 9.512 4.064 9.896C3.552 10.264 3.152 10.736 2.864 11.312C2.592 11.872 2.44 12.456 2.408 13.064ZM19.5275 20.288C18.3275 20.288 17.2955 20.008 16.4315 19.448C15.5835 18.872 14.9275 18.104 14.4635 17.144C13.9995 16.168 13.7675 15.08 13.7675 13.88C13.7675 12.68 14.0235 11.6 14.5355 10.64C15.0475 9.664 15.7835 8.896 16.7435 8.336C17.7035 7.76 18.8555 7.472 20.1995 7.472C21.4795 7.472 22.5835 7.752 23.5115 8.312C24.4555 8.872 25.1755 9.632 25.6715 10.592C26.1835 11.552 26.4395 12.624 26.4395 13.808V20H24.2075V17.504H24.1595C23.9195 17.952 23.5915 18.392 23.1755 18.824C22.7595 19.256 22.2475 19.608 21.6395 19.88C21.0475 20.152 20.3435 20.288 19.5275 20.288ZM20.1035 18.392C20.9035 18.392 21.6075 18.192 22.2155 17.792C22.8395 17.392 23.3195 16.848 23.6555 16.16C24.0075 15.472 24.1835 14.696 24.1835 13.832C24.1835 12.984 24.0155 12.224 23.6795 11.552C23.3595 10.88 22.8955 10.352 22.2875 9.968C21.6795 9.568 20.9675 9.368 20.1515 9.368C19.2875 9.368 18.5435 9.568 17.9195 9.968C17.3115 10.368 16.8395 10.912 16.5035 11.6C16.1835 12.288 16.0235 13.056 16.0235 13.904C16.0235 14.736 16.1835 15.496 16.5035 16.184C16.8235 16.856 17.2875 17.392 17.8955 17.792C18.5035 18.192 19.2395 18.392 20.1035 18.392ZM29.7871 20V18.104H35.6431C36.2191 18.104 36.6671 17.928 36.9871 17.576C37.3231 17.208 37.4911 16.792 37.4911 16.328C37.4911 15.896 37.3391 15.52 37.0351 15.2C36.7471 14.864 36.3231 14.696 35.7631 14.696H33.2911C32.1071 14.696 31.1551 14.408 30.4351 13.832C29.7311 13.24 29.3791 12.384 29.3791 11.264C29.3791 10.64 29.5311 10.064 29.8351 9.536C30.1391 9.008 30.5631 8.584 31.1071 8.264C31.6511 7.928 32.2751 7.76 32.9791 7.76H38.6191V9.656H33.1951C32.7151 9.656 32.3231 9.816 32.0191 10.136C31.7311 10.44 31.5871 10.792 31.5871 11.192C31.5871 11.592 31.7311 11.944 32.0191 12.248C32.3231 12.536 32.7471 12.68 33.2911 12.68H35.6431C36.9551 12.68 37.9551 12.992 38.6431 13.616C39.3471 14.24 39.6991 15.12 39.6991 16.256C39.6991 16.912 39.5391 17.528 39.2191 18.104C38.8991 18.664 38.4511 19.12 37.8751 19.472C37.2991 19.824 36.6431 20 35.9071 20H29.7871ZM47.2434 24.872V20.192C46.3474 20.064 45.5474 19.76 44.8434 19.28C44.1554 18.8 43.6114 18.184 43.2114 17.432C42.8114 16.68 42.6114 15.816 42.6114 14.84V7.76H44.8434V14.816C44.8434 15.552 45.0034 16.192 45.3234 16.736C45.6594 17.264 46.0914 17.672 46.6194 17.96C47.1474 18.248 47.7154 18.392 48.3234 18.392C48.9474 18.392 49.5234 18.248 50.0514 17.96C50.5954 17.672 51.0274 17.264 51.3474 16.736C51.6834 16.192 51.8514 15.552 51.8514 14.816V7.76H54.0594V14.84C54.0594 15.816 53.8594 16.68 53.4594 17.432C53.0754 18.184 52.5314 18.8 51.8274 19.28C51.1394 19.744 50.3474 20.048 49.4514 20.192V24.872H47.2434ZM66.6845 19.544C65.8685 20.008 64.7565 20.24 63.3485 20.24C61.5085 20.24 60.0925 19.8 59.1005 18.92C58.1085 18.024 57.6125 16.688 57.6125 14.912V11.552H55.8125V7.592H57.6125V3.92H63.0365V7.592H65.7245V11.552H63.0365V14.864C63.0365 15.264 63.1405 15.576 63.3485 15.8C63.5565 16.024 63.8285 16.136 64.1645 16.136C64.6285 16.136 65.0365 16.016 65.3885 15.776L66.6845 19.544ZM68.0516 6.872H73.4756V20H68.0516V6.872ZM70.7636 5.816C69.7876 5.816 68.9956 5.56 68.3876 5.048C67.7956 4.52 67.4996 3.856 67.4996 3.056C67.4996 2.256 67.7956 1.6 68.3876 1.088C68.9956 0.559999 69.7876 0.295999 70.7636 0.295999C71.7556 0.295999 72.5476 0.543999 73.1396 1.04C73.7316 1.536 74.0276 2.176 74.0276 2.96C74.0276 3.792 73.7316 4.48 73.1396 5.024C72.5476 5.552 71.7556 5.816 70.7636 5.816ZM84.6397 6.632C85.7917 6.632 86.8477 6.912 87.8077 7.472C88.7837 8.016 89.5517 8.808 90.1117 9.848C90.6877 10.888 90.9757 12.088 90.9757 13.448C90.9757 14.808 90.6877 16.008 90.1117 17.048C89.5517 18.072 88.7837 18.864 87.8077 19.424C86.8477 19.968 85.7917 20.24 84.6397 20.24C83.1837 20.24 82.0717 19.864 81.3037 19.112V24.656H75.8797V6.872H81.0397V7.952C81.8237 7.072 83.0237 6.632 84.6397 6.632ZM83.3437 16.016C83.9677 16.016 84.4797 15.792 84.8797 15.344C85.2797 14.896 85.4797 14.264 85.4797 13.448C85.4797 12.632 85.2797 12 84.8797 11.552C84.4797 11.088 83.9677 10.856 83.3437 10.856C82.7197 10.856 82.2077 11.088 81.8077 11.552C81.4077 12 81.2077 12.632 81.2077 13.448C81.2077 14.264 81.4077 14.896 81.8077 15.344C82.2077 15.792 82.7197 16.016 83.3437 16.016ZM97.8204 20.24C96.7004 20.24 95.5964 20.12 94.5084 19.88C93.4204 19.64 92.5404 19.328 91.8684 18.944L93.3564 15.368C93.9644 15.736 94.6844 16.024 95.5164 16.232C96.3484 16.44 97.1564 16.544 97.9404 16.544C98.5644 16.544 98.9964 16.496 99.2364 16.4C99.4924 16.288 99.6204 16.128 99.6204 15.92C99.6204 15.712 99.4604 15.568 99.1404 15.488C98.8364 15.408 98.3324 15.328 97.6284 15.248C96.5564 15.12 95.6444 14.96 94.8924 14.768C94.1404 14.56 93.4764 14.168 92.9004 13.592C92.3404 13.016 92.0604 12.192 92.0604 11.12C92.0604 10.272 92.3164 9.512 92.8284 8.84C93.3404 8.168 94.1004 7.632 95.1084 7.232C96.1324 6.832 97.3564 6.632 98.7804 6.632C99.7724 6.632 100.74 6.728 101.684 6.92C102.644 7.096 103.46 7.36 104.132 7.712L102.644 11.288C101.492 10.648 100.228 10.328 98.8524 10.328C97.6684 10.328 97.0764 10.536 97.0764 10.952C97.0764 11.16 97.2364 11.312 97.5564 11.408C97.8764 11.488 98.3804 11.568 99.0684 11.648C100.14 11.776 101.044 11.944 101.78 12.152C102.532 12.36 103.188 12.752 103.748 13.328C104.324 13.904 104.612 14.728 104.612 15.8C104.612 16.616 104.356 17.36 103.844 18.032C103.332 18.704 102.564 19.24 101.54 19.64C100.516 20.04 99.2764 20.24 97.8204 20.24Z" fill="white"/>
</svg>
